<svg xmlns="http://www.w3.org/2000/svg" viewBox="0 0 512 512"><!--!Font Awesome Pro 6.7.2 by @fontawesome - https://fontawesome.com License - https://fontawesome.com/license (Commercial License) Copyright 2025 Fonticons, Inc.--><path d="M352 248v-16c0-4.4-3.6-8-8-8H168c-4.4 0-8 3.6-8 8v16c0 4.4 3.6 8 8 8h176c4.4 0 8-3.6 8-8zm-184-56h176c4.4 0 8-3.6 8-8v-16c0-4.4-3.6-8-8-8H168c-4.4 0-8 3.6-8 8v16c0 4.4 3.6 8 8 8zm326.6-27.5c-2-1.6-22.2-17.9-46.6-37.5V96c0-17.7-14.3-32-32-32h-46.5c-4.1-3.3-7.7-6.2-10.2-8.1C337.2 38.2 299.4 0 256 0c-43.2 0-80.6 37.7-103.3 55.9-2.5 2-6.1 4.9-10.2 8.1H96c-17.7 0-32 14.3-32 32v31c-24.5 19.7-44.8 36-46.5 37.4A48 48 0 0 0 0 201.5V464c0 26.5 21.5 48 48 48h416c26.5 0 48-21.5 48-48V201.5c0-14.3-6.4-27.9-17.4-37zM256 32c21.8 0 44.6 16.7 63.1 32H192.9c18.5-15.3 41.4-32 63.1-32zM96 96h320v173.4c-32.3 26-65.3 52.4-86.6 69.3-16.9 13.4-50.2 45.7-73.4 45.3-23.2 .4-56.6-31.9-73.4-45.3-21.3-16.9-54.2-43.3-86.6-69.3V96zM32 201.5c0-4.8 2.1-9.3 5.8-12.4 1.2-1 11.6-9.4 26.2-21.1v75.6c-11.5-9.3-22.5-18.1-32-25.8v-16.3zM480 464c0 8.8-7.2 16-16 16H48c-8.8 0-16-7.2-16-16V258.9c42.8 34.4 99.3 79.9 130.7 104.8 20.5 16.4 56.7 52.5 93.3 52.3 36.5 .3 72.3-35.5 93.3-52.3C380.7 338.8 437.2 293.3 480 258.9V464zm0-246.2c-9.6 7.8-20.3 16.3-32 25.8v-75.5c14.4 11.6 24.8 20 26.2 21.1 3.7 3.1 5.8 7.5 5.8 12.3v16.3z"/></svg>