<svg xmlns="http://www.w3.org/2000/svg" viewBox="0 0 512 512"><!--!Font Awesome Pro 6.7.2 by @fontawesome - https://fontawesome.com License - https://fontawesome.com/license (Commercial License) Copyright 2025 Fonticons, Inc.--><path d="M492 8h-10c-6.6 0-12 5.4-12 12v110.6C426.9 57.3 347.2 8 256 8 123.2 8 14.8 112.3 8.3 243.5 8 250.3 13.5 256 20.3 256h10c6.4 0 11.6-4.9 12-11.3C48.2 132.2 141.1 42 256 42c82.9 0 154.7 47.1 190.3 116H332c-6.6 0-12 5.4-12 12v10c0 6.6 5.4 12 12 12h160c6.6 0 12-5.4 12-12V20c0-6.6-5.4-12-12-12zm-.3 248h-10c-6.4 0-11.6 4.9-12 11.3C463.8 380.2 370.5 470 256 470c-82.6 0-154.7-47-190.3-116H180c6.6 0 12-5.4 12-12v-10c0-6.6-5.4-12-12-12H20c-6.6 0-12 5.4-12 12v160c0 6.6 5.4 12 12 12h10c6.6 0 12-5.4 12-12V381.4C85.1 454.7 164.8 504 256 504c132.8 0 241.2-104.3 247.7-235.5 .3-6.8-5.2-12.5-12-12.5z"/></svg>